# xmcd CD database file
#
# Track frame offsets:
#	150
#	16783
#	38059
#	54106
#	70794
#	97023
#	111111
#	128604
#	142355
#	156640
#	176179
#	188956
#	207567
#	229737
#
# Disc length: 3358 seconds
#
# Revision: 1
# Processed by: cddbd v1.5.2PL0 Copyright (c) Steve Scherf et al.
# Submitted via: CDex 1.60beta1-cs1
#
DISCID=ca0d1c0e
DTITLE=Percy Sledge - My Old Friend the Blues
DYEAR=2009
DGENRE=Soul
TTITLE0=Shining Through the Rain
TTITLE1=Lonely Hobo Lullabye
TTITLE2=24-7-365
TTITLE3=Love Come Rescue Me
TTITLE4=Misty Morning
TTITLE5=A Lonely Violin
TTITLE6=Big Blue Diamonds
TTITLE7=My Old Friend the Blues
TTITLE8=Rubies and Diamonds
TTITLE9=Change My Mind
TTITLE10=Searching For My Love
TTITLE11=Fall Inside Your Eyes
TTITLE12=Road of No Return
TTITLE13=Honest as Daylight
EXTD=YEAR: 2009
EXTT0=
EXTT1=
EXTT2=
EXTT3=
EXTT4=
EXTT5=
EXTT6=
EXTT7=
EXTT8=
EXTT9=
EXTT10=
EXTT11=
EXTT12=
EXTT13=
PLAYORDER=
